REM DIRINDEX 1\2,1\3
REM DIRNAME folder01,folder02,folder03
TITLE ""
FILE "2561-2580.mp3" MP3
  TRACK 01 AUDIO
    TITLE "0:"
    INDEX 01 00:00:00
  TRACK 02 AUDIO
    TITLE "2:cjc039_4121"
    INDEX 01 00:00:23
  TRACK 03 AUDIO
    TITLE "0:"
    INDEX 01 00:01:32
  TRACK 04 AUDIO
    TITLE "3:cjc039_4122"
    INDEX 01 00:02:10
  TRACK 05 AUDIO
    TITLE "0:"
    INDEX 01 00:05:14
  TRACK 06 AUDIO
    TITLE "2:cjc039_4123"
    INDEX 01 00:06:63
  TRACK 07 AUDIO
    TITLE "0:"
    INDEX 01 00:08:07
  TRACK 08 AUDIO
    TITLE "3:cjc039_4124"
    INDEX 01 00:08:58
  TRACK 09 AUDIO
    TITLE "0:"
    INDEX 01 00:12:60
  TRACK 10 AUDIO
    TITLE "2:cjc039_4125"
    INDEX 01 00:14:37
  TRACK 11 AUDIO
    TITLE "0:"
    INDEX 01 00:15:56
  TRACK 12 AUDIO
    TITLE "3:cjc039_4126"
    INDEX 01 00:16:34
  TRACK 13 AUDIO
    TITLE "0:"
    INDEX 01 00:19:50
  TRACK 14 AUDIO
    TITLE "2:cjc039_4127"
    INDEX 01 00:21:23
  TRACK 15 AUDIO
    TITLE "0:"
    INDEX 01 00:22:46
  TRACK 16 AUDIO
    TITLE "3:cjc039_4128"
    INDEX 01 00:23:22
  TRACK 17 AUDIO
    TITLE "0:"
    INDEX 01 00:26:46
  TRACK 18 AUDIO
    TITLE "2:cjc039_4129"
    INDEX 01 00:28:13
  TRACK 19 AUDIO
    TITLE "0:"
    INDEX 01 00:29:17
  TRACK 20 AUDIO
    TITLE "3:cjc039_4130"
    INDEX 01 00:29:70
  TRACK 21 AUDIO
    TITLE "0:"
    INDEX 01 00:33:32
  TRACK 22 AUDIO
    TITLE "2:cjc039_4131"
    INDEX 01 00:35:10
  TRACK 23 AUDIO
    TITLE "0:"
    INDEX 01 00:36:29
  TRACK 24 AUDIO
    TITLE "3:cjc039_4132"
    INDEX 01 00:37:03
  TRACK 25 AUDIO
    TITLE "0:"
    INDEX 01 00:40:64
  TRACK 26 AUDIO
    TITLE "2:cjc039_4133"
    INDEX 01 00:42:43
  TRACK 27 AUDIO
    TITLE "0:"
    INDEX 01 00:43:50
  TRACK 28 AUDIO
    TITLE "3:cjc039_4134"
    INDEX 01 00:44:22
  TRACK 29 AUDIO
    TITLE "0:"
    INDEX 01 00:47:70
  TRACK 30 AUDIO
    TITLE "2:cjc039_4135"
    INDEX 01 00:49:47
  TRACK 31 AUDIO
    TITLE "0:"
    INDEX 01 00:50:56
  TRACK 32 AUDIO
    TITLE "3:cjc039_4136"
    INDEX 01 00:51:34
  TRACK 33 AUDIO
    TITLE "0:"
    INDEX 01 00:55:03
  TRACK 34 AUDIO
    TITLE "2:cjc039_4137"
    INDEX 01 00:56:57
  TRACK 35 AUDIO
    TITLE "0:"
    INDEX 01 00:57:56
  TRACK 36 AUDIO
    TITLE "3:cjc039_4138"
    INDEX 01 00:58:36
  TRACK 37 AUDIO
    TITLE "0:"
    INDEX 01 01:02:01
  TRACK 38 AUDIO
    TITLE "2:cjc039_4139"
    INDEX 01 01:03:49
  TRACK 39 AUDIO
    TITLE "0:"
    INDEX 01 01:04:68
  TRACK 40 AUDIO
    TITLE "3:cjc039_4140"
    INDEX 01 01:05:44
  TRACK 41 AUDIO
    TITLE "0:"
    INDEX 01 01:09:65
  TRACK 42 AUDIO
    TITLE "2:cjc039_4141"
    INDEX 01 01:11:47
  TRACK 43 AUDIO
    TITLE "0:"
    INDEX 01 01:12:58
  TRACK 44 AUDIO
    TITLE "3:cjc039_4142"
    INDEX 01 01:13:42
  TRACK 45 AUDIO
    TITLE "0:"
    INDEX 01 01:17:22
  TRACK 46 AUDIO
    TITLE "2:cjc039_4143"
    INDEX 01 01:19:05
  TRACK 47 AUDIO
    TITLE "0:"
    INDEX 01 01:20:28
  TRACK 48 AUDIO
    TITLE "3:cjc039_4144"
    INDEX 01 01:21:08
  TRACK 49 AUDIO
    TITLE "0:"
    INDEX 01 01:25:37
  TRACK 50 AUDIO
    TITLE "2:cjc039_4145"
    INDEX 01 01:27:20
  TRACK 51 AUDIO
    TITLE "0:"
    INDEX 01 01:28:20
  TRACK 52 AUDIO
    TITLE "3:cjc039_4146"
    INDEX 01 01:29:01
  TRACK 53 AUDIO
    TITLE "0:"
    INDEX 01 01:32:12
  TRACK 54 AUDIO
    TITLE "2:cjc039_4147"
    INDEX 01 01:33:64
  TRACK 55 AUDIO
    TITLE "0:"
    INDEX 01 01:35:31
  TRACK 56 AUDIO
    TITLE "3:cjc039_4148"
    INDEX 01 01:36:13
  TRACK 57 AUDIO
    TITLE "0:"
    INDEX 01 01:39:64
  TRACK 58 AUDIO
    TITLE "2:cjc039_4149"
    INDEX 01 01:41:44
  TRACK 59 AUDIO
    TITLE "0:"
    INDEX 01 01:42:55
  TRACK 60 AUDIO
    TITLE "3:cjc039_4150"
    INDEX 01 01:43:35
  TRACK 61 AUDIO
    TITLE "0:"
    INDEX 01 01:47:05
  TRACK 62 AUDIO
    TITLE "2:cjc039_4151"
    INDEX 01 01:48:61
  TRACK 63 AUDIO
    TITLE "0:"
    INDEX 01 01:50:17
  TRACK 64 AUDIO
    TITLE "3:cjc039_4152"
    INDEX 01 01:50:68
  TRACK 65 AUDIO
    TITLE "0:"
    INDEX 01 01:54:46
  TRACK 66 AUDIO
    TITLE "2:cjc039_4153"
    INDEX 01 01:56:28
  TRACK 67 AUDIO
    TITLE "0:"
    INDEX 01 01:57:43
  TRACK 68 AUDIO
    TITLE "3:cjc039_4154"
    INDEX 01 01:58:23
  TRACK 69 AUDIO
    TITLE "0:"
    INDEX 01 02:01:64
  TRACK 70 AUDIO
    TITLE "2:cjc039_4155"
    INDEX 01 02:03:39
  TRACK 71 AUDIO
    TITLE "0:"
    INDEX 01 02:04:59
  TRACK 72 AUDIO
    TITLE "3:cjc039_4156"
    INDEX 01 02:05:40
  TRACK 73 AUDIO
    TITLE "0:"
    INDEX 01 02:09:50
  TRACK 74 AUDIO
    TITLE "2:cjc039_4157"
    INDEX 01 02:11:29
  TRACK 75 AUDIO
    TITLE "0:"
    INDEX 01 02:12:50
  TRACK 76 AUDIO
    TITLE "3:cjc039_4158"
    INDEX 01 02:13:22
  TRACK 77 AUDIO
    TITLE "0:"
    INDEX 01 02:16:07
  TRACK 78 AUDIO
    TITLE "2:cjc039_4159"
    INDEX 01 02:17:59
  TRACK 79 AUDIO
    TITLE "0:"
    INDEX 01 02:19:11
  TRACK 80 AUDIO
    TITLE "3:cjc039_4160"
    INDEX 01 02:19:66
  TRACK 81 AUDIO
    TITLE "0:"
    INDEX 01 02:23:70
